<mxfile host="app.diagrams.net" modified="2023-05-05T17:31:08.234Z" agent="Mozilla/5.0 (Windows NT 10.0; Win64; x64; rv:108.0) Gecko/20100101 Firefox/108.0" etag="dvCTFYxlrdyz4dGkBwOX" version="21.2.9" type="device">
  <diagram name="Page-1" id="32ckkzt09vxWi3VlrIsG">
    <mxGraphModel dx="1434" dy="754" grid="1" gridSize="10" guides="1" tooltips="1" connect="1" arrows="1" fold="1" page="1" pageScale="1" pageWidth="827" pageHeight="1169" math="0" shadow="0">
      <root>
        <mxCell id="0" />
        <mxCell id="1" parent="0" />
        <mxCell id="H15ZiFyMa2bJHWOo4hFF-12" style="edgeStyle=orthogonalEdgeStyle;rounded=0;orthogonalLoop=1;jettySize=auto;html=1;entryX=0;entryY=0.5;entryDx=0;entryDy=0;endArrow=none;endFill=0;" edge="1" parent="1" source="H15ZiFyMa2bJHWOo4hFF-1" target="H15ZiFyMa2bJHWOo4hFF-4">
          <mxGeometry relative="1" as="geometry" />
        </mxCell>
        <mxCell id="H15ZiFyMa2bJHWOo4hFF-13" style="edgeStyle=orthogonalEdgeStyle;rounded=0;orthogonalLoop=1;jettySize=auto;html=1;entryX=0;entryY=0.5;entryDx=0;entryDy=0;endArrow=none;endFill=0;" edge="1" parent="1" source="H15ZiFyMa2bJHWOo4hFF-1" target="H15ZiFyMa2bJHWOo4hFF-5">
          <mxGeometry relative="1" as="geometry" />
        </mxCell>
        <mxCell id="H15ZiFyMa2bJHWOo4hFF-1" value="&lt;font style=&quot;font-size: 25px;&quot;&gt;網頁後端&lt;br&gt;&lt;/font&gt;" style="rounded=0;whiteSpace=wrap;html=1;" vertex="1" parent="1">
          <mxGeometry y="550" width="160" height="60" as="geometry" />
        </mxCell>
        <mxCell id="H15ZiFyMa2bJHWOo4hFF-18" style="edgeStyle=orthogonalEdgeStyle;rounded=0;orthogonalLoop=1;jettySize=auto;html=1;entryX=0;entryY=0.5;entryDx=0;entryDy=0;endArrow=none;endFill=0;" edge="1" parent="1" source="H15ZiFyMa2bJHWOo4hFF-4" target="H15ZiFyMa2bJHWOo4hFF-10">
          <mxGeometry relative="1" as="geometry" />
        </mxCell>
        <mxCell id="H15ZiFyMa2bJHWOo4hFF-4" value="&lt;font style=&quot;font-size: 25px;&quot;&gt;爬蟲&lt;br&gt;&lt;/font&gt;" style="rounded=0;whiteSpace=wrap;html=1;" vertex="1" parent="1">
          <mxGeometry x="220" y="340" width="160" height="60" as="geometry" />
        </mxCell>
        <mxCell id="H15ZiFyMa2bJHWOo4hFF-14" style="edgeStyle=orthogonalEdgeStyle;rounded=0;orthogonalLoop=1;jettySize=auto;html=1;entryX=0;entryY=0.5;entryDx=0;entryDy=0;endArrow=none;endFill=0;" edge="1" parent="1" source="H15ZiFyMa2bJHWOo4hFF-5" target="H15ZiFyMa2bJHWOo4hFF-6">
          <mxGeometry relative="1" as="geometry" />
        </mxCell>
        <mxCell id="H15ZiFyMa2bJHWOo4hFF-15" style="edgeStyle=orthogonalEdgeStyle;rounded=0;orthogonalLoop=1;jettySize=auto;html=1;entryX=0;entryY=0.5;entryDx=0;entryDy=0;endArrow=none;endFill=0;" edge="1" parent="1" source="H15ZiFyMa2bJHWOo4hFF-5" target="H15ZiFyMa2bJHWOo4hFF-7">
          <mxGeometry relative="1" as="geometry" />
        </mxCell>
        <mxCell id="H15ZiFyMa2bJHWOo4hFF-17" style="edgeStyle=orthogonalEdgeStyle;rounded=0;orthogonalLoop=1;jettySize=auto;html=1;entryX=0;entryY=0.5;entryDx=0;entryDy=0;endArrow=none;endFill=0;" edge="1" parent="1" source="H15ZiFyMa2bJHWOo4hFF-5" target="H15ZiFyMa2bJHWOo4hFF-8">
          <mxGeometry relative="1" as="geometry" />
        </mxCell>
        <mxCell id="H15ZiFyMa2bJHWOo4hFF-5" value="&lt;font style=&quot;font-size: 25px;&quot;&gt;會員管理&lt;br&gt;&lt;/font&gt;" style="rounded=0;whiteSpace=wrap;html=1;" vertex="1" parent="1">
          <mxGeometry x="220" y="710" width="160" height="60" as="geometry" />
        </mxCell>
        <mxCell id="H15ZiFyMa2bJHWOo4hFF-6" value="&lt;font style=&quot;font-size: 25px;&quot;&gt;會員查詢&lt;/font&gt;" style="rounded=0;whiteSpace=wrap;html=1;" vertex="1" parent="1">
          <mxGeometry x="440" y="580" width="160" height="60" as="geometry" />
        </mxCell>
        <mxCell id="H15ZiFyMa2bJHWOo4hFF-7" value="&lt;font style=&quot;font-size: 25px;&quot;&gt;停用會員&lt;/font&gt;" style="rounded=0;whiteSpace=wrap;html=1;" vertex="1" parent="1">
          <mxGeometry x="440" y="710" width="160" height="60" as="geometry" />
        </mxCell>
        <mxCell id="H15ZiFyMa2bJHWOo4hFF-8" value="&lt;font style=&quot;font-size: 25px;&quot;&gt;編輯&lt;/font&gt;&lt;font style=&quot;font-size: 25px;&quot;&gt;會員資料&lt;/font&gt;" style="rounded=0;whiteSpace=wrap;html=1;" vertex="1" parent="1">
          <mxGeometry x="440" y="840" width="160" height="60" as="geometry" />
        </mxCell>
        <mxCell id="H15ZiFyMa2bJHWOo4hFF-10" value="&lt;font style=&quot;font-size: 25px;&quot;&gt;編輯資料來源&lt;br&gt;&lt;/font&gt;" style="rounded=0;whiteSpace=wrap;html=1;" vertex="1" parent="1">
          <mxGeometry x="440" y="340" width="160" height="60" as="geometry" />
        </mxCell>
      </root>
    </mxGraphModel>
  </diagram>
</mxfile>
